<svg xmlns="http://www.w3.org/2000/svg" width="220" height="48" viewBox="0 0 220 48">
  <defs>
    <linearGradient id="iconGrad" x1="0" y1="0" x2="0" y2="1">
      <stop offset="0%" stop-color="#E8F4F8"/>
      <stop offset="100%" stop-color="#4ECDC4"/>
    </linearGradient>
  </defs>

  <!-- ÍCONO escalado a 44x44 -->
  <g transform="translate(2, 2) scale(0.172)">
    <path d="m190 93.74 5.69 12.15c-11.49 1.37-16.97 2-28.8 7.64-9.72 4.86-15.43 4.18-21.89 3.59l32.48-55.72-31.25 20.89c0.69 3.76 0.22 6.68-0.16 10.62-0.75-12.7-13.95-32.8-13.64-51.1l12.66 6.3-20.24-42.11-19.91 41.62 11.8-5.2c-0.54 14.32 2.36 20.77 6.59 30.88 3.7 8.88 3.75 12.87 2.69 19.92l-54.2-31.82 21.04 31.51c7.87 0 8.34 0.31 10.98 0.99-12.82 0-27.41 9.88-41.52 12.54-3.39 0.65-6.2 0.98-10.05 0.98l7.03-13.52-42.02 21.21 42.34 20.5-4.39-11.69c14.42-0.65 21.73-5.74 30.86-9.2 6.62-2.61 9.62-3.01 17.28-2.61l-31.66 55.71 32.28-22.08-0.9-10.13h26.08l48.15 32.53-19.9-32.53c-9.5-0.65-9.98-0.86-12.62-1.83 12.46-0.97 27.05-10.64 51.96-11.96l-6.76 13.47 42.01-20.49-42.01-21.06z" fill="url(#iconGrad)"/>
    <path d="m124.7 13.75-13.11 27.16 7.37-3.54c-1.06 11.25-0.04 20.74 5.36 31.04 6.76 12.85 8.17 18.32 6.76 27.65h2.33c1.72-10.13-0.72-18.93-5.34-29.23-5.16-11.41-4.02-22.02-3.37-53.08z" fill="#E8F4F8"/>
    <path d="m82.06 70.7 20.86 21.11h-8.3l-12.56-21.11z" fill="#7BB8D4"/>
    <path d="m147 82.29 20.24-11.59-20.47 19.66 0.23-8.07z" fill="#7BB8D4"/>
    <path d="m25.57 115.3 1.56-0.47c11.49 0.98 27.62 1.63 39.61-0.87 11.49-2.54 20.91-9.68 37.4-9.02-8.22-1.99-14.02 0-23.73 5.43-10.02 5.7-16.18 8.69-31.4 9.94l3.25 7.74-26.69-12.75z" fill="#E8F4F8"/>
    <path d="m198 101.3 25.64 13.15h-28.6c-12.06 0-21.7 4.08-30.5 7.58s-14.4 3.1-21.5 2.21l2.72-4.15c8.22 1.31 13.72-1.28 21.94-5.4 8.22-4.11 14.34-5.94 32.18-6.83l-1.88-6.56z" fill="#E8F4F8"/>
    <path d="m83.12 157.7 18.19-19.78-1.56 11.01-16.63 8.77z" fill="#7BB8D4"/>
    <path d="m146.1 135.6 10.32 0.65 10.9 20.46-21.22-21.11z" fill="#7BB8D4"/>
    <path d="m124.8 92.91c-12.63 0-21.33 10.01-21.33 22.2 0 3.51 0.74 6.63 2.1 9.47-3.25 9.33-4.42 16.7-3.25 25.34 2.49 14.86 14.6 34.01 15.25 49.51v7.07l-13.08-6.75 20.58 43.96 21.5-43.65-12.47 6.44c0-14.16-3.16-25.53-9.3-42.34-3.43-9.45-2.61-17.45 0-27.9 11.41-0.97 20.89-9.65 20.89-21.46 0-11.88-9.05-21.89-20.89-21.89z" fill="#4ECDC4"/>
    <path d="m124.8 96.18c-10.51 0-16.89 9.04-16.89 18.62 0 9.93 8.16 17.22 16.73 17.22 9.58 0 17.1-8.6 17.1-17.22 0-9.69-7.36-18.62-16.94-18.62z" fill="#E8F4F8"/>
    <path d="m124.4 104.9c-6.84 0-9 6.01-9 9.5 0 6.19 4.86 9.51 9 9.51 6.06 0 9.41-5.51 9.41-9.51 0-5.28-4.21-9.5-9.41-9.5z" fill="#4ECDC4"/>
    <path d="m116.1 136.3c-3.25 10.41-2.6 20.61 2.87 35.47 5.13 14.14 7.03 22.08 6.64 62.9l13.69-27.16-8.49 2.92c0.9-16.11-2.08-27.16-8.44-41.3-5.46-12.18-6.27-19.86-4.77-32.83h-1.5z" fill="#E8F4F8"/>
  </g>

  <!-- TEXTO -->
  <text
    x="54"
    y="28"
    font-family="Georgia, 'Times New Roman', serif"
    font-style="italic"
    font-weight="300"
    font-size="21"
    letter-spacing="0.5"
    fill="#E8F4F8">Fin del Mundo</text>

  <text
    x="56"
    y="42"
    font-family="Arial, Helvetica, sans-serif"
    font-weight="500"
    font-size="8.5"
    letter-spacing="4"
    fill="#4ECDC4">STAYS</text>
</svg>
